<?xml version="1.0" standalone="no"?>
<!DOCTYPE svg PUBLIC "-//W3C//DTD SVG 20010904//EN"
 "http://www.w3.org/TR/2001/REC-SVG-20010904/DTD/svg10.dtd">
<svg version="1.0" xmlns="http://www.w3.org/2000/svg"
 width="500.000000pt" height="500.000000pt" viewBox="0 0 500.000000 500.000000"
 preserveAspectRatio="xMidYMid meet">

<g transform="translate(0.000000,500.000000) scale(0.100000,-0.100000)"
fill="#000000" stroke="none">
<path d="M2330 4840 c-456 -36 -874 -192 -1238 -464 -137 -103 -365 -331 -468
-468 -311 -417 -466 -885 -466 -1408 0 -650 245 -1229 713 -1686 358 -349 809
-568 1314 -640 162 -23 468 -23 630 0 530 75 989 307 1361 688 187 192 303
353 420 583 169 335 247 668 247 1055 0 220 -16 363 -64 559 -203 830 -859
1496 -1684 1711 -228 59 -539 87 -765 70z m540 -75 c416 -72 775 -236 1095
-500 564 -465 878 -1195 825 -1916 -24 -326 -96 -592 -235 -870 -119 -237
-243 -408 -434 -600 -192 -191 -363 -315 -600 -434 -573 -287 -1238 -319
-1839 -89 -796 306 -1356 1023 -1462 1874 -13 109 -13 431 0 540 31 248 109
509 219 735 297 607 850 1057 1501 1220 289 73 652 88 930 40z"/>
<path d="M2257 4656 c-70 -26 -97 -66 -97 -148 0 -129 106 -204 216 -152 48
23 80 90 68 141 -5 20 -12 23 -54 23 -61 0 -80 -7 -80 -31 0 -15 7 -19 35 -19
28 0 35 -4 35 -20 0 -27 -42 -52 -81 -48 -46 4 -74 46 -74 110 0 43 4 53 29
75 23 19 36 24 60 19 17 -4 36 -13 42 -21 14 -19 74 -20 74 -1 0 22 -50 65
-89 76 -43 12 -37 12 -84 -4z"/>
<path d="M2901 4601 c-60 -225 -68 -270 -54 -275 38 -15 51 -6 63 44 18 76 55
64 80 -26 13 -50 19 -59 44 -65 17 -5 32 -6 34 -4 3 2 -3 31 -12 63 -19 70
-19 72 -3 72 23 0 57 45 63 82 11 66 -24 99 -136 128 l-70 18 -9 -37z m127
-58 c27 -16 27 -60 1 -76 -20 -12 -89 0 -89 16 0 7 5 29 11 50 9 33 13 37 32
31 12 -3 32 -13 45 -21z"/>
<path d="M1484 4421 c-66 -40 -82 -99 -40 -148 21 -24 30 -28 68 -25 113 9
132 8 136 -11 6 -28 -27 -57 -64 -57 -18 0 -36 4 -39 10 -4 6 -18 4 -38 -6
l-31 -17 28 -23 c32 -28 91 -32 135 -9 37 19 81 71 81 96 0 34 -29 78 -56 85
-26 7 -107 0 -135 -11 -25 -10 -51 22 -38 46 14 27 55 42 79 29 13 -7 27 -6
44 2 32 14 32 22 4 42 -31 22 -96 20 -134 -3z"/>
<path d="M2580 4400 c-9 -16 -8 -25 1 -36 26 -32 84 0 62 34 -16 26 -50 27
-63 2z"/>
<path d="M3571 4313 c-45 -22 -89 -85 -96 -138 -18 -116 116 -207 216 -148 37
22 78 81 89 128 26 117 -99 212 -209 158z m123 -64 c44 -34 29 -111 -30 -158
-56 -44 -124 -11 -124 62 0 32 7 46 39 78 44 45 75 49 115 18z"/>
<path d="M3219 4254 c-9 -11 -10 -20 -2 -32 25 -41 86 -14 63 27 -13 25 -42
27 -61 5z"/>
<path d="M1095 4154 c-49 -42 -91 -79 -92 -83 -1 -3 4 -15 12 -25 15 -19 15
-19 37 0 55 48 48 50 137 -56 83 -99 83 -99 107 -82 13 9 24 20 24 24 0 3 -36
48 -80 100 -44 51 -80 96 -80 100 0 4 16 20 35 35 32 25 33 29 18 45 -9 10
-19 18 -22 18 -3 0 -46 -34 -96 -76z"/>
<path d="M2310 4219 c-740 -84 -1351 -641 -1500 -1369 -99 -480 9 -975 299
-1370 273 -374 674 -615 1146 -691 130 -21 408 -16 548 10 345 63 645 216 896
456 258 246 430 564 503 927 33 164 33 472 0 636 -117 584 -501 1055 -1045
1282 -250 105 -573 150 -847 119z m430 -50 c461 -62 899 -339 1164 -734 153
-228 265 -554 278 -810 l3 -60 -1684 -1 -1683 -1 6 86 c33 414 246 837 562
1113 376 329 858 474 1354 407z m-1690 -1713 c407 -107 757 -304 1008 -567
l42 -45 -20 -82 c-29 -116 -50 -272 -50 -377 l0 -90 -55 112 c-90 187 -190
326 -337 469 -115 112 -169 156 -281 229 -115 74 -264 144 -408 190 l-117 37
-6 37 c-3 20 -6 59 -6 87 l0 51 68 -13 c37 -7 110 -24 162 -38z m3128 -32 l-3
-86 -134 -44 c-292 -96 -544 -257 -745 -476 -108 -119 -186 -232 -260 -378
l-63 -126 -7 106 c-8 126 -19 203 -48 333 l-21 98 39 41 c257 267 633 473
1054 576 69 17 136 33 150 35 14 2 29 5 33 6 4 0 6 -38 5 -85z m-1701 -201 c2
-203 1 -245 -10 -233 -7 8 -50 54 -96 101 l-83 87 18 33 c30 59 160 259 168
259 0 0 2 -111 3 -247z m97 179 c20 -29 59 -92 86 -138 l49 -86 -36 -31 c-20
-18 -63 -62 -95 -100 l-58 -68 0 248 c0 136 4 243 8 238 5 -6 25 -34 46 -63z
m332 -867 c20 -158 15 -328 -16 -530 -11 -77 -22 -141 -24 -142 -10 -10 -153
-33 -240 -39 l-101 -6 -2 58 c-10 281 110 636 296 875 l36 46 17 -66 c9 -36
25 -124 34 -196z m-686 153 c157 -234 237 -474 248 -737 l5 -134 -87 6 c-110
9 -229 27 -246 37 -39 24 -74 491 -51 672 12 93 39 236 48 251 8 13 21 -2 83
-95z"/>
<path d="M4042 3804 l-102 -124 22 -30 c12 -17 23 -30 24 -30 2 0 49 18 105
40 73 28 98 35 87 22 -7 -9 -40 -47 -71 -84 -48 -55 -56 -71 -48 -86 24 -46
31 -45 182 9 79 29 147 55 151 58 4 4 -3 19 -15 34 l-22 27 -111 -48 -111 -48
78 89 c44 49 79 92 79 97 0 4 -8 18 -18 30 l-19 23 -74 -28 c-41 -15 -91 -37
-112 -47 -37 -18 -35 -15 42 73 l80 92 -17 29 c-9 15 -19 28 -22 28 -3 -1 -51
-57 -108 -126z"/>
<path d="M3775 3890 c-4 -6 -4 -22 -1 -36 5 -20 12 -25 34 -22 23 2 27 8 27
33 0 25 -4 31 -27 33 -14 2 -29 -2 -33 -8z"/>
<path d="M785 3834 c-9 -14 -15 -27 -13 -28 2 -2 44 -31 93 -65 l90 -62 -50 5
c-27 3 -87 8 -131 11 l-82 6 -22 -31 c-12 -17 -21 -32 -19 -34 2 -1 60 -42
128 -90 l125 -88 18 22 c10 12 18 26 18 30 0 4 -38 33 -85 65 -47 32 -84 60
-82 61 1 1 57 -2 125 -7 122 -9 124 -9 142 13 11 13 19 28 20 34 0 9 -240 184
-253 184 -2 0 -12 -12 -22 -26z"/>
<path d="M540 2016 c-87 -28 -106 -37 -108 -55 -5 -32 16 -34 98 -7 41 14 75
24 76 23 1 -1 -29 -37 -66 -80 -64 -74 -68 -80 -58 -108 5 -16 13 -27 16 -25
4 2 60 20 125 40 110 35 118 38 111 59 -3 12 -8 23 -9 25 -2 2 -34 -6 -72 -18
-37 -11 -77 -23 -88 -26 -14 -4 -6 9 25 42 101 108 101 110 94 138 -8 33 -14
32 -144 -8z"/>
<path d="M4328 2013 c-22 -25 -54 -131 -42 -141 12 -11 233 -76 238 -71 2 2
12 34 22 71 22 81 13 117 -29 133 -22 7 -35 6 -56 -6 -26 -15 -28 -15 -37 5
-12 29 -74 34 -96 9z m72 -48 c7 -9 9 -26 5 -45 -6 -26 -10 -29 -33 -24 -39 9
-42 15 -27 52 15 34 35 41 55 17z m94 -11 c17 -6 20 -33 10 -71 -5 -19 -11
-22 -33 -17 -14 4 -30 10 -34 14 -9 8 10 62 26 72 15 9 12 9 31 2z"/>
<path d="M4240 1780 c-5 -10 -10 -21 -10 -25 0 -3 38 -23 83 -44 46 -21 87
-46 91 -56 9 -24 -15 -69 -39 -73 -12 -2 -56 13 -100 33 -74 34 -80 35 -92 19
-7 -10 -13 -21 -13 -25 0 -4 43 -25 94 -48 92 -41 96 -41 131 -27 27 12 41 27
56 60 35 79 12 113 -113 170 -74 34 -78 34 -88 16z"/>
<path d="M679 1725 c-90 -46 -103 -56 -112 -93 -14 -58 44 -142 99 -142 24 0
194 79 194 90 0 4 -6 14 -13 24 -13 17 -17 16 -86 -19 -82 -41 -119 -43 -138
-6 -18 37 -1 57 87 101 44 22 80 44 80 48 0 5 -6 15 -12 24 -12 15 -22 12 -99
-27z"/>
<path d="M4106 1518 c-15 -21 -14 -23 29 -51 l45 -29 -31 -44 c-16 -24 -33
-44 -37 -44 -4 0 -24 12 -45 26 -37 25 -39 25 -52 7 -8 -10 -14 -20 -14 -23 0
-3 45 -36 101 -74 77 -53 105 -67 116 -59 28 17 24 31 -17 59 -23 15 -41 31
-41 36 0 4 12 26 26 48 30 45 19 45 98 -6 23 -14 25 -14 35 5 6 11 11 22 11
25 0 3 -47 37 -105 76 l-104 70 -15 -22z"/>
<path d="M877 1509 c-17 -10 -17 -12 4 -46 18 -29 20 -37 8 -43 -8 -5 -47 -31
-87 -60 -64 -45 -71 -53 -62 -70 6 -11 14 -20 18 -20 4 0 45 26 90 57 l84 57
27 -33 c24 -30 28 -31 41 -17 11 15 6 28 -45 101 -32 47 -58 85 -59 85 -1 0
-9 -5 -19 -11z"/>
<path d="M960 1210 c-89 -83 -94 -89 -78 -105 15 -16 18 -16 52 10 54 41 72
14 41 -62 -14 -33 -14 -38 1 -55 24 -26 29 -23 45 29 14 43 18 48 48 49 44 2
81 38 81 80 0 22 -12 47 -40 82 -21 28 -43 53 -47 55 -5 3 -51 -34 -103 -83z
m140 -40 c0 -20 -19 -40 -39 -40 -8 0 -25 10 -38 22 l-23 22 27 28 27 28 23
-22 c13 -12 23 -29 23 -38z"/>
<path d="M3840 1177 c-32 -16 -70 -73 -70 -106 0 -35 39 -97 76 -121 77 -52
183 5 184 98 0 31 -32 93 -48 92 -4 -1 -25 -16 -46 -35 -33 -29 -37 -37 -26
-50 12 -14 15 -14 35 5 25 24 35 18 35 -21 0 -31 -31 -59 -66 -59 -28 0 -81
49 -90 84 -8 35 30 80 63 73 30 -6 64 30 43 43 -21 13 -61 12 -90 -3z"/>
<path d="M1166 1045 c-113 -128 -108 -120 -87 -139 17 -16 23 -12 106 79 73
79 85 98 75 110 -21 25 -34 18 -94 -50z"/>
<path d="M1296 1023 c-5 -12 1 -23 18 -36 15 -10 26 -23 26 -29 0 -6 -22 -40
-48 -77 -27 -36 -52 -72 -56 -79 -8 -13 9 -42 25 -42 4 0 36 38 70 85 l62 85
33 -25 33 -25 11 21 c7 11 10 22 8 23 -2 1 -36 26 -76 55 -89 63 -98 67 -106
44z"/>
<path d="M3645 1006 c-18 -13 -16 -17 28 -80 26 -37 47 -69 47 -71 0 -2 -37
12 -82 31 -46 20 -88 38 -94 40 -6 3 -21 -4 -34 -14 l-23 -19 73 -104 c40 -57
73 -105 74 -106 1 -1 11 6 24 15 l22 17 -43 60 c-24 33 -46 66 -51 72 -4 7 30
-4 76 -23 110 -48 111 -48 136 -27 l21 18 -72 102 c-40 57 -75 103 -78 103 -3
0 -14 -6 -24 -14z"/>
<path d="M1516 867 c-41 -66 -117 -200 -114 -202 2 -1 12 -7 24 -13 19 -10 24
-4 62 61 23 40 53 90 66 113 l25 41 -24 11 c-22 10 -27 8 -39 -11z"/>
<path d="M3397 848 c-15 -12 -10 -24 45 -125 57 -104 62 -111 82 -101 12 6 22
12 24 13 5 4 -119 225 -127 225 -4 0 -15 -6 -24 -12z"/>
<path d="M1633 780 c-45 -27 -77 -92 -70 -143 13 -98 133 -139 200 -69 71 74
60 174 -23 217 -39 20 -69 19 -107 -5z m107 -50 c24 -24 25 -51 4 -96 -29 -61
-87 -70 -120 -19 -13 20 -14 31 -5 57 25 71 81 98 121 58z"/>
<path d="M3272 785 l-33 -14 6 -93 7 -93 -39 45 c-21 25 -49 57 -63 72 l-25
28 -36 -18 -36 -17 46 -117 c25 -65 50 -118 56 -118 5 0 16 4 24 9 14 9 14 10
-48 176 -2 5 10 -7 27 -28 76 -94 100 -116 123 -110 21 6 22 9 16 112 l-5 106
35 -93 c20 -50 39 -92 42 -92 4 0 15 6 25 13 16 12 14 20 -27 127 -24 63 -48
115 -53 117 -5 1 -24 -4 -42 -12z"/>
<path d="M1883 588 c-32 -125 -31 -137 8 -138 12 0 21 21 34 80 18 77 34 104
36 58 0 -13 12 -56 27 -97 22 -62 32 -76 54 -82 26 -7 26 -6 57 110 17 65 31
122 31 128 0 6 -11 13 -24 15 -23 5 -25 0 -47 -80 l-23 -85 -29 94 c-32 105
-32 105 -67 114 -24 6 -26 3 -57 -117z"/>
<path d="M2855 655 c-33 -6 -59 -16 -59 -21 11 -88 49 -244 59 -244 35 0 43
11 34 48 -12 50 -12 49 11 55 14 4 28 -5 51 -34 19 -25 39 -39 53 -39 37 0 38
11 2 54 -30 37 -32 44 -20 61 20 28 17 78 -6 103 -12 12 -25 22 -30 22 -4 0
-14 2 -22 4 -7 2 -40 -2 -73 -9z m87 -60 c14 -30 0 -49 -44 -59 -24 -5 -28 -3
-34 21 -3 16 -7 33 -9 40 -4 12 14 20 53 22 15 1 26 -7 34 -24z"/>
<path d="M2296 558 c-15 -198 -16 -188 16 -188 27 0 28 2 28 51 l0 50 56 -7
c55 -6 56 -6 52 17 -3 21 -9 24 -50 27 -47 3 -48 4 -48 38 l0 34 60 0 c52 0
60 3 60 19 0 15 -10 19 -52 25 -29 3 -67 6 -85 6 l-31 0 -6 -72z"/>
<path d="M2593 623 c-12 -2 -24 -12 -27 -21 -11 -35 -66 -236 -66 -239 0 -2
13 -3 29 -3 24 0 31 5 36 29 6 30 26 41 75 41 19 0 28 -7 37 -30 9 -24 17 -30
42 -30 l30 0 -53 128 c-53 126 -59 134 -103 125z m39 -108 l17 -45 -31 0 c-29
0 -30 2 -24 31 3 17 6 38 6 45 0 28 16 13 32 -31z"/>
</g>
</svg>
